<?xml version="1.0" encoding="UTF-8" standalone="no"?>
<!-- Created with Inkscape (http://www.inkscape.org/) -->

<svg
   width="57.386528mm"
   height="21.690857mm"
   viewBox="0 0 57.386528 21.690857"
   version="1.1"
   id="svg1030"
   inkscape:export-filename="bitmap.svg"
   inkscape:export-xdpi="96"
   inkscape:export-ydpi="96"
   sodipodi:docname="logo.svg"
   inkscape:version="1.2.2 (732a01da63, 2022-12-09)"
   xmlns:inkscape="http://www.inkscape.org/namespaces/inkscape"
   xmlns:sodipodi="http://sodipodi.sourceforge.net/DTD/sodipodi-0.dtd"
   xmlns="http://www.w3.org/2000/svg"
   xmlns:svg="http://www.w3.org/2000/svg">
  <sodipodi:namedview
     id="namedview1032"
     pagecolor="#ffffff"
     bordercolor="#000000"
     borderopacity="0.25"
     inkscape:showpageshadow="2"
     inkscape:pageopacity="0.0"
     inkscape:pagecheckerboard="0"
     inkscape:deskcolor="#d1d1d1"
     inkscape:document-units="mm"
     showgrid="false"
     inkscape:zoom="6.892769"
     inkscape:cx="107.72158"
     inkscape:cy="40.98498"
     inkscape:window-width="1920"
     inkscape:window-height="1013"
     inkscape:window-x="-9"
     inkscape:window-y="-9"
     inkscape:window-maximized="1"
     inkscape:current-layer="layer1" />
  <defs
     id="defs1027" />
  <g
     inkscape:label="Layer 1"
     inkscape:groupmode="layer"
     id="layer1"
     transform="translate(-32.046189,-208.93479)">
    <g
       id="g209"
       transform="matrix(0.17464923,0,0,0.17464923,92.184176,250.30596)">
      <path
         style="fill:#ee8e01;stroke-width:0.264583"
         d="m -155.59055,-129.62243 c -0.0719,-0.18732 -0.0667,-11.31967 0.0116,-24.73854 0.10187,-17.47167 0.22483,-24.39795 0.43311,-24.39794 0.56758,2e-5 5.31962,3.47555 5.53505,4.0482 0.12043,0.3201 0.1331,10.67254 0.0282,23.00543 l -0.19078,22.42344 h -2.84322 c -2.07438,0 -2.87855,-0.0921 -2.9739,-0.34059 z"
         id="path219" />
      <path
         style="fill:#da060d;stroke-width:0.264583"
         d="m -79.792719,-193.89309 c -0.235537,-0.23553 -0.3175,-2.85214 -0.3175,-10.13588 0,-7.92731 -0.07028,-9.9145 -0.364889,-10.31741 -0.276262,-0.37781 -0.792605,-0.52625 -2.125869,-0.61114 l -1.760979,-0.11213 0.07535,-2.54828 0.07535,-2.54828 13.0797,-0.0687 c 10.288362,-0.054 13.124852,0.002 13.291261,0.26459 0.116359,0.18328 0.213384,6.00998 0.215612,12.9482 0.0036,11.11891 -0.04526,12.66426 -0.411723,13.03073 -0.364022,0.36402 -1.724144,0.41577 -10.927292,0.41577 -7.822848,0 -10.592728,-0.0812 -10.829017,-0.3175 z"
         id="path217" />
      <path
         style="fill:#00943d;stroke-width:0.264583"
         d="m -126.76508,-193.75198 c -0.097,-0.097 -0.17639,-4.55625 -0.17639,-9.90942 0,-6.87479 -0.091,-9.9328 -0.30994,-10.41329 -0.32553,-0.71445 -0.73226,-0.87824 -2.46818,-0.99391 l -1.05834,-0.0705 -0.0773,-2.20845 c -0.049,-1.40063 0.0354,-2.34425 0.23084,-2.57969 0.42012,-0.50622 25.61523,-0.55805 26.11955,-0.0537 0.45737,0.45737 0.45737,25.63054 0,26.08791 -0.23666,0.23666 -3.08877,0.3175 -11.20069,0.3175 -5.98576,0 -10.96258,-0.0794 -11.05959,-0.17639 z"
         id="path215" />
      <path
         style="fill:#2d2281;stroke-width:0.264583"
         d="m -156.5748,-154.39457 c 0,-14.40186 0.10159,-26.24799 0.22575,-26.32472 0.12416,-0.0767 1.91074,1.01008 3.97016,2.41517 l 3.7444,2.55469 -0.0676,23.69682 -0.0675,23.69681 -3.90261,0.0732 -3.9026,0.0732 z m 7.6082,2.30829 0.0676,-23.4659 -3.47957,-2.3889 c -1.91377,-1.3139 -3.58128,-2.32604 -3.70559,-2.24921 -0.12432,0.0768 -0.22603,11.74461 -0.22603,25.92841 v 25.78872 l 3.63802,-0.0736 3.63803,-0.0736 z m 86.560596,20.96407 c -0.376378,-0.11406 -0.982472,-0.40274 -1.346875,-0.6415 -0.3644,-0.23877 -5.826482,-5.90829 -12.137958,-12.59894 -6.311477,-6.69066 -11.568017,-12.07222 -11.681203,-11.95903 -0.113183,0.11318 -0.236749,5.79696 -0.27459,12.63063 l -0.0688,12.42484 h -3.704166 -3.704167 v -19.05 c 0,-18.01191 0.02646,-19.09326 0.485352,-19.84375 1.099468,-1.79808 3.403425,-2.48659 5.303575,-1.58491 0.638175,0.30284 4.644935,4.38928 11.745052,11.97863 5.92704,6.33544 11.112526,11.91668 11.523303,12.40274 0.410778,0.48606 0.857263,0.88374 0.992187,0.88374 0.147222,0 0.245322,-4.96519 0.245322,-12.41651 0,-10.93497 0.04961,-12.46613 0.415774,-12.83229 0.614225,-0.61423 6.500053,-0.6059 7.116016,0.01 0.384778,0.38478 0.418491,2.21529 0.349628,18.98385 -0.07447,18.13552 -0.08861,18.58211 -0.620707,19.61635 -0.370644,0.72042 -0.91654,1.24841 -1.709708,1.65365 -1.217126,0.62183 -1.786409,0.68841 -2.928038,0.34244 z m -25.641714,-12.9947 c 0,-12.19569 0.01998,-12.71492 0.485952,-12.63385 0.267274,0.0465 5.6916,5.59174 12.054059,12.32276 6.362459,6.73101 11.912398,12.41625 12.3332,12.63385 1.164486,0.60218 3.216642,0.51301 4.095043,-0.17795 1.489477,-1.17162 1.458828,-0.73083 1.458828,-20.98145 v -18.66162 h -3.439583 -3.439584 l -0.004,12.50156 c -0.0024,7.18229 -0.108032,12.66595 -0.24843,12.88792 -0.208339,0.32937 -0.330886,0.30986 -0.830932,-0.13229 -0.322604,-0.28526 -5.491594,-5.76186 -11.486644,-12.17022 -5.995051,-6.40837 -11.278283,-11.9698 -11.740515,-12.35875 -1.096296,-0.92247 -2.486591,-1.17707 -3.831074,-0.70158 -1.22346,0.43269 -1.960443,1.32218 -2.296689,2.77196 -0.273764,1.18039 -0.34771,36.97091 -0.07694,37.24167 0.09701,0.097 1.704356,0.17639 3.571875,0.17639 h 3.395483 z m -199.888512,12.54524 c -7.40776,-1.5924 -13.00518,-7.38109 -14.86579,-15.37376 -0.66832,-2.87092 -0.60108,-7.92072 0.14277,-10.72269 1.01484,-3.82272 3.37066,-7.57811 6.25216,-9.96647 1.75912,-1.45806 5.07064,-3.0675 7.6491,-3.71754 1.94603,-0.49061 2.98126,-0.52762 14.75759,-0.52762 h 12.66475 l -0.0732,3.9026 -0.0732,3.9026 -12.43541,0.135 c -11.07986,0.12028 -12.56426,0.18611 -13.61737,0.60386 -3.80343,1.50874 -6.33102,4.32096 -7.30673,8.12953 -0.59837,2.33568 -0.40653,6.41339 0.40089,8.52129 1.22952,3.20984 3.55851,5.5426 6.86931,6.88044 1.44814,0.58517 1.77278,0.60241 13.78619,0.73229 l 12.30312,0.13301 v 3.83646 3.83646 l -12.30312,0.0459 c -10.07429,0.0376 -12.63789,-0.0261 -14.15102,-0.35134 z m 26.32185,-3.531 v -3.70417 h -11.71837 c -12.47811,0 -13.35045,-0.0741 -15.84394,-1.3462 -4.44558,-2.26797 -7.17266,-8.14678 -6.31009,-13.60276 0.71084,-4.49623 3.38334,-7.98948 7.42528,-9.70564 1.4242,-0.6047 1.61451,-0.61492 13.87941,-0.7454 l 12.43542,-0.13229 0.0736,-3.63802 0.0736,-3.63802 h -12.18945 c -10.11343,0 -12.53647,0.0717 -14.22695,0.42086 -6.79078,1.40267 -11.59349,5.62415 -13.89116,12.21003 -0.72223,2.07013 -0.82104,2.7284 -0.92387,6.15453 -0.0976,3.25288 -0.0306,4.19068 0.44062,6.16514 1.90573,7.98538 7.79776,13.6994 15.43873,14.97229 0.7658,0.12758 6.77994,0.24587 13.36476,0.26288 l 11.97239,0.0309 z m 1.5875,3.6037 c 0,-0.34789 22.13945,-37.08948 23.47656,-38.9606 1.49334,-2.08975 4.58463,-2.24672 6.31849,-0.32084 0.69245,0.76913 23.91537,39.0185 23.91537,39.38987 0,0.17467 -1.64496,0.24352 -4.69636,0.19658 l -4.69635,-0.0722 -3.175,-5.31917 c -1.74625,-2.92555 -3.33841,-5.51516 -3.53813,-5.75469 -0.32357,-0.38808 -1.30897,-0.43552 -9.04636,-0.43552 -5.58418,0 -8.74243,-0.0958 -8.84907,-0.26833 -0.0912,-0.14758 0.6459,-1.78468 1.63803,-3.63802 l 1.80386,-3.36969 4.63021,-0.13229 c 3.7557,-0.10731 4.61548,-0.20146 4.55223,-0.49852 -0.0798,-0.37485 -5.2358,-9.25399 -5.59375,-9.63301 -0.10889,-0.1153 -0.36558,-0.009 -0.57042,0.23712 -0.20484,0.24572 -4.1849,6.82896 -8.84458,14.62944 l -8.47214,14.18268 -4.42629,0.0725 c -3.69287,0.0605 -4.4263,0.01 -4.4263,-0.3053 z m 17.33021,-14.58391 c 6.11567,-10.19279 8.86744,-14.55208 9.18588,-14.55208 0.5561,0 6.40448,9.77692 6.18716,10.34326 -0.11525,0.30034 -1.03278,0.37236 -4.74377,0.37236 h -4.60087 l -1.65368,3.19938 c -0.97138,1.87932 -1.55611,3.29694 -1.41721,3.43584 0.13006,0.13006 4.10173,0.26792 8.82593,0.30635 l 8.58947,0.0699 3.43313,5.75469 3.43312,5.75468 h 4.30594 c 2.78076,0 4.30594,-0.0966 4.30594,-0.2728 0,-0.53841 -23.06362,-38.2436 -23.92461,-39.11275 -1.62092,-1.63631 -4.06489,-1.39022 -5.53824,0.55767 -0.67181,0.88819 -23.15213,37.90267 -23.38498,38.50403 -0.10335,0.26689 0.74858,0.32231 4.06741,0.26458 l 4.19813,-0.073 z m 37.35035,14.77257 c -0.097,-0.097 -0.17639,-9.19072 -0.17639,-20.20823 0,-17.20809 0.0543,-20.07687 0.38497,-20.35134 0.29288,-0.24306 3.34693,-0.29344 12.76615,-0.21059 11.68281,0.10277 12.50056,0.14126 14.49783,0.68244 6.64847,1.80143 11.5309,6.35567 13.5163,12.60774 1.19341,3.75809 1.29163,8.86519 0.24947,12.97199 -1.45188,5.72138 -6.0722,11.0375 -11.51501,13.24911 -3.25687,1.32338 -4.62695,1.43527 -17.57577,1.43527 -6.58414,0 -12.05054,-0.0794 -12.14755,-0.17639 z m 27.20798,-0.70042 c 2.24831,-0.63926 5.56199,-2.33684 7.32655,-3.75336 1.91232,-1.53513 3.71413,-3.91459 5.00881,-6.61462 1.63355,-3.40672 1.94831,-4.96526 1.95035,-9.65729 0.002,-3.5667 -0.079,-4.35839 -0.6184,-6.0761 -1.76326,-5.61531 -4.89121,-9.2795 -9.96314,-11.67121 -3.72535,-1.75672 -4.74769,-1.85455 -18.52084,-1.77227 l -12.17083,0.0727 -0.0684,19.71146 c -0.0376,10.8413 -0.009,19.8676 0.0641,20.05844 0.10747,0.28144 2.51929,0.32872 12.76842,0.2503 10.91582,-0.0835 12.85202,-0.15812 14.22342,-0.54805 z m -19.39396,-7.11361 c -0.23777,-0.23777 -0.3175,-3.38535 -0.3175,-12.53531 0,-10.42895 0.057,-12.26509 0.3891,-12.54073 0.29383,-0.24387 2.35052,-0.29671 8.40052,-0.21584 7.49954,0.10024 8.1204,0.14545 9.71694,0.70768 3.52185,1.24023 6.13419,3.73513 7.45012,7.11515 0.88263,2.2671 1.01394,6.55741 0.27512,8.98979 -1.31253,4.32123 -4.36777,7.27677 -8.68453,8.40115 -1.98754,0.51769 -16.72338,0.58449 -17.22977,0.0781 z m 17.12208,-0.35488 c 5.40381,-1.27376 9.01875,-6.14775 9.01875,-12.15991 0,-4.50929 -1.90491,-8.23583 -5.35017,-10.46643 -2.6554,-1.71922 -3.75155,-1.87222 -12.77378,-1.78294 l -7.9375,0.0785 -0.069,12.03854 c -0.0379,6.6212 -0.0119,12.18737 0.0578,12.36927 0.20012,0.5219 14.7925,0.45596 17.05383,-0.0771 z m 39.77657,8.17007 c -0.26028,-0.10502 -0.33052,-4.17263 -0.32974,-19.09526 0.001,-18.86096 0.004,-18.9667 0.56265,-19.88317 0.70496,-1.15641 1.16524,-1.51173 2.41292,-1.86266 0.70824,-0.19921 1.31399,-0.19438 2.11667,0.0169 1.36415,0.35905 1.63856,0.63262 14.85164,14.80568 5.35874,5.74807 9.90829,10.48932 10.11011,10.53609 0.30821,0.0714 0.37794,-1.94018 0.43567,-12.5677 l 0.0687,-12.65278 h 3.70417 3.70416 l 0.0721,18.65313 c 0.0797,20.60841 0.10449,20.26932 -1.57207,21.46313 -1.11433,0.79347 -2.89323,0.9491 -4.18586,0.36621 -0.7458,-0.33631 -4.27127,-3.89611 -12.61276,-12.73556 -6.36769,-6.74783 -11.6718,-12.26878 -11.7869,-12.26878 -0.11511,0 -0.20929,5.5279 -0.20929,12.28422 0,10.8147 -0.0497,12.33397 -0.41577,12.7 -0.3332,0.3332 -1.02948,0.41163 -3.50573,0.39489 -1.69947,-0.0115 -3.23878,-0.0809 -3.42068,-0.15434 z m 35.88126,-0.81166 c 1.54001,-1.13928 1.48472,-0.40027 1.56407,-20.90738 l 0.073,-18.85156 h -3.57868 -3.57867 v 12.68438 c 0,8.52573 -0.0905,12.74035 -0.27617,12.85507 -0.1519,0.0939 -0.47051,0.0116 -0.70804,-0.18282 -0.23753,-0.19443 -5.33653,-5.59226 -11.33112,-11.99518 -5.99459,-6.40291 -11.27972,-11.99885 -11.74475,-12.43541 -0.76899,-0.72193 -1.009,-0.79375 -2.65243,-0.79375 -2.01199,0 -2.56943,0.3126 -3.29896,1.84998 -0.36556,0.77036 -0.41561,3.12521 -0.41561,19.55511 v 18.67928 h 3.43958 3.43959 l 0.004,-12.36927 c 0.002,-7.40806 0.10553,-12.52845 0.25706,-12.76614 0.1806,-0.28331 0.36212,-0.32117 0.63433,-0.1323 0.20973,0.14552 5.62666,5.81957 12.03763,12.60899 6.66181,7.05508 11.97168,12.46547 12.39234,12.62693 1.03686,0.39798 2.91857,0.18385 3.74284,-0.42593 z m -3.28695,-54.4211 c -0.4337,-0.31637 -0.53417,-0.79996 -0.64588,-3.10885 l -0.13229,-2.7342 -9.03708,-0.0696 -9.03707,-0.0696 -0.091,2.60934 c -0.0595,1.70434 -0.21699,2.76084 -0.45417,3.04615 -0.3289,0.39564 -1.64314,0.43681 -13.94177,0.43681 h -13.57864 l -0.41188,-0.58804 c -0.35934,-0.51302 -0.41188,-2.2616 -0.41188,-13.70776 0,-10.91021 0.0632,-13.20622 0.37537,-13.63331 0.3589,-0.49105 0.87849,-0.5194 11.84011,-0.64588 l 11.46473,-0.1323 0.13229,-2.5406 c 0.0827,-1.58848 0.26838,-2.70398 0.49542,-2.97656 0.32859,-0.3945 1.65284,-0.43596 13.92437,-0.43596 12.28247,0 13.59549,0.0412 13.92438,0.43681 0.23718,0.28531 0.3947,1.34183 0.45417,3.04624 l 0.091,2.60944 8.77249,-0.0697 8.772493,-0.0697 0.132292,-2.7342 c 0.111712,-2.30888 0.212182,-2.79248 0.645882,-3.10885 0.426614,-0.31121 2.735389,-0.37465 13.633315,-0.37465 11.446157,0 13.194736,0.0525 13.707763,0.41187 l 0.588039,0.41188 v 13.36385 c 0,8.70607 -0.09546,13.54222 -0.273892,13.87562 -0.264078,0.49344 -0.669874,0.51177 -11.324166,0.51177 -8.241882,0 -11.130967,0.0807 -11.367775,0.3175 -0.203496,0.2035 -0.3175,1.24315 -0.3175,2.89542 0,2.364 -0.04879,2.61209 -0.588039,2.98979 -0.513027,0.35934 -2.261605,0.41188 -13.707763,0.41188 -10.897929,0 -13.206699,-0.0635 -13.633319,-0.37466 z m 27.076499,-0.3018 c 0.539244,-0.37771 0.588039,-0.62579 0.588039,-2.98979 0,-1.65227 0.114004,-2.69192 0.3175,-2.89542 0.236768,-0.23677 3.116204,-0.3175 11.324166,-0.3175 8.207962,0 11.087399,-0.0807 11.324166,-0.3175 0.397608,-0.39761 0.454039,-26.57337 0.05863,-27.19916 -0.216369,-0.34244 -2.053273,-0.40695 -13.392761,-0.47029 -11.509274,-0.0643 -13.219787,-0.0224 -13.768104,0.33683 -0.587748,0.38511 -0.626102,0.5687 -0.626102,2.99706 0,1.65919 -0.113855,2.70067 -0.3175,2.90431 -0.23381,0.23381 -2.565199,0.3175 -8.844642,0.3175 -7.399171,0 -8.582151,-0.055 -8.942921,-0.41577 -0.31791,-0.31791 -0.41577,-0.99053 -0.41577,-2.8575 0,-1.54634 -0.11643,-2.55815 -0.3175,-2.75923 -0.23851,-0.23851 -3.62054,-0.3175 -13.59365,-0.3175 -12.02568,0 -13.31035,0.0412 -13.63927,0.43747 -0.22682,0.27325 -0.41278,1.39056 -0.49542,2.97656 l -0.13229,2.5391 -11.46476,0.13229 c -10.96166,0.12649 -11.48124,0.15483 -11.84011,0.64588 -0.31186,0.42674 -0.37534,2.6875 -0.37534,13.36873 0,11.20669 0.0528,12.93055 0.41188,13.44318 l 0.41188,0.58804 h 13.29354 c 9.98664,0 13.37252,-0.079 13.61104,-0.3175 0.19949,-0.19949 0.319,-1.20749 0.32155,-2.71198 0.002,-1.31696 0.0995,-2.54487 0.2162,-2.72869 0.16569,-0.26101 2.2365,-0.31896 9.4548,-0.26458 l 9.24265,0.0696 0.0664,2.24895 c 0.0852,2.88686 0.21738,3.4106 0.93375,3.69886 0.32306,0.12999 6.30567,0.2439 13.294672,0.25312 11.091065,0.0146 12.782065,-0.0356 13.295312,-0.3951 z m -26.641929,-0.48752 c -0.19831,-0.23895 -0.28016,-1.24751 -0.23083,-2.84427 l 0.0764,-2.47404 1.76314,-0.0777 c 1.22383,-0.0539 1.87129,-0.20791 2.11667,-0.50335 0.27619,-0.33252 0.38247,-2.65959 0.48582,-10.63791 l 0.13229,-10.21227 10.892248,-0.0691 c 9.641506,-0.0611 10.940322,-0.021 11.310937,0.34963 0.370321,0.37032 0.41869,1.89679 0.41869,13.21319 0,11.27858 -0.04926,12.84375 -0.415775,13.21026 -0.366617,0.36662 -1.942486,0.41578 -13.329059,0.41578 -10.742611,0 -12.964941,-0.0622 -13.220551,-0.37023 z m 26.372594,-13.10635 c 0.05401,-10.28836 -0.0024,-13.12485 -0.264584,-13.29126 -0.384815,-0.24429 -20.58443,-0.30053 -21.21369,-0.0591 -0.37139,0.14251 -0.41852,1.2838 -0.41852,10.13589 0,8.19441 -0.067,10.06698 -0.37531,10.48888 -0.28729,0.39314 -0.7992,0.54461 -2.18281,0.64588 l -1.8075,0.13229 -0.0771,2.35887 c -0.0558,1.70813 0.0172,2.41907 0.26458,2.57708 0.18792,0.12001 6.1162,0.18961 13.173965,0.15466 l 12.832291,-0.0635 z m -73.196094,12.8511 c -0.21608,-0.26036 -0.28039,-3.96445 -0.23084,-13.29531 l 0.0687,-12.93442 12.93441,-0.0687 c 9.33087,-0.0495 13.03496,0.0148 13.29531,0.23083 0.2957,0.24541 0.3609,2.61017 0.3609,13.0901 0,12.37489 -0.0166,12.79949 -0.51177,13.06448 -0.33215,0.17776 -4.91756,0.27389 -13.06448,0.27389 -10.27902,0 -12.60696,-0.0654 -12.85222,-0.36089 z"
         id="path213" />
      <path
         style="fill:#222120;stroke-width:0.264583"
         d="m -156.31022,-154.26188 c 0,-14.1838 0.10171,-25.85159 0.22603,-25.92841 0.12431,-0.0768 1.79182,0.93531 3.70559,2.24921 l 3.47957,2.3889 -0.0676,23.4659 -0.0676,23.4659 -3.63803,0.0736 -3.63802,0.0736 z m 6.73359,2.37898 c 0.11623,-13.45954 0.0979,-22.7748 -0.0452,-23.03061 -0.28647,-0.5119 -5.057,-3.84541 -5.5031,-3.84541 -0.23416,0 -0.34642,6.02607 -0.45717,24.5401 -0.0807,13.49706 -0.092,24.6294 -0.0249,24.73854 0.067,0.10914 1.40736,0.19844 2.97855,0.19844 h 2.85672 l 0.19517,-22.60106 z m -137.3749,20.19058 c -7.64097,-1.27289 -13.533,-6.98691 -15.43873,-14.97229 -0.47122,-1.97446 -0.53824,-2.91226 -0.44062,-6.16514 0.10283,-3.42613 0.20164,-4.0844 0.92387,-6.15453 2.29767,-6.58588 7.10038,-10.80736 13.89116,-12.21003 1.69048,-0.34918 4.11352,-0.42086 14.22695,-0.42086 h 12.18945 l -0.0736,3.63802 -0.0736,3.63802 -12.43542,0.13229 c -12.2649,0.13048 -12.45521,0.1407 -13.87941,0.7454 -4.04194,1.71616 -6.71444,5.20941 -7.42528,9.70564 -0.86257,5.45598 1.86451,11.33479 6.31009,13.60276 2.49349,1.27208 3.36583,1.3462 15.84394,1.3462 h 11.71837 v 3.70417 3.70416 l -11.97239,-0.0309 c -6.58482,-0.017 -12.59896,-0.1353 -13.36476,-0.26288 z m 27.25807,-0.03 c 0.23285,-0.60136 22.71317,-37.61584 23.38498,-38.50403 1.47335,-1.94789 3.91732,-2.19398 5.53824,-0.55767 0.86099,0.86915 23.92461,38.57434 23.92461,39.11275 0,0.17618 -1.52518,0.2728 -4.30594,0.2728 h -4.30594 l -3.43312,-5.75468 -3.43313,-5.75469 -8.58947,-0.0699 c -4.7242,-0.0384 -8.69587,-0.17629 -8.82593,-0.30635 -0.1389,-0.1389 0.44583,-1.55652 1.41721,-3.43584 l 1.65368,-3.19938 h 4.60087 c 3.71099,0 4.62852,-0.072 4.74377,-0.37236 0.21732,-0.56634 -5.63106,-10.34326 -6.18716,-10.34326 -0.31844,0 -3.07021,4.35929 -9.18588,14.55208 l -8.73125,14.55208 -4.19813,0.073 c -3.31883,0.0577 -4.17076,0.002 -4.06741,-0.26458 z m 54.56328,0.009 c -0.0729,-0.19085 -0.10171,-9.21715 -0.0641,-20.05845 l 0.0684,-19.71146 12.17083,-0.0727 c 13.77315,-0.0823 14.79549,0.0155 18.52084,1.77227 5.07193,2.39171 8.19988,6.0559 9.96314,11.67121 0.53938,1.71771 0.61996,2.5094 0.6184,6.0761 -0.002,4.69203 -0.3168,6.25057 -1.95035,9.65729 -2.0137,4.19952 -4.6362,6.89457 -8.63119,8.86998 -3.95216,1.95423 -3.81034,1.93804 -17.92759,2.04605 -10.24913,0.0784 -12.66095,0.0311 -12.76842,-0.2503 z m 24.82765,-7.48947 c 4.31676,-1.12437 7.372,-4.07992 8.68453,-8.40115 0.73882,-2.43237 0.60751,-6.72268 -0.27512,-8.98979 -1.31593,-3.38002 -3.92827,-5.87491 -7.45012,-7.11514 -1.59654,-0.56223 -2.2174,-0.60745 -9.71694,-0.70769 -6.05,-0.0809 -8.10669,-0.028 -8.40052,0.21584 -0.33213,0.27564 -0.3891,2.11178 -0.3891,12.54073 0,9.14997 0.0797,12.29754 0.3175,12.53531 0.50639,0.50639 15.24223,0.43958 17.22977,-0.0781 z m 71.80731,7.50758 c -0.42067,-0.16148 -5.73054,-5.57187 -12.39235,-12.62695 -6.41096,-6.78942 -11.8279,-12.46347 -12.03763,-12.60899 -0.27221,-0.18887 -0.45373,-0.15101 -0.63433,0.1323 -0.15152,0.23769 -0.25463,5.35808 -0.25705,12.76614 l -0.004,12.36927 h -3.43959 -3.43958 v -18.67928 c 0,-16.4299 0.05,-18.78475 0.41561,-19.55511 0.72953,-1.53738 1.28697,-1.84998 3.29896,-1.84998 1.64343,0 1.88344,0.0718 2.65243,0.79375 0.46503,0.43656 5.75016,6.0325 11.74475,12.43541 5.99459,6.40292 11.09359,11.80075 11.33112,11.99518 0.23753,0.19443 0.55614,0.2767 0.70804,0.18282 0.18563,-0.11472 0.27617,-4.32934 0.27617,-12.85507 v -12.68438 h 3.57867 3.57868 l -0.073,18.85156 c -0.0793,20.50711 -0.0241,19.7681 -1.56407,20.90738 -0.82426,0.60978 -2.70597,0.82391 -3.74283,0.42593 z m 13.480142,0.11998 c -0.27077,-0.27077 -0.196824,-36.06128 0.07694,-37.24168 0.336246,-1.44978 1.07323,-2.33927 2.296689,-2.77196 1.344483,-0.47549 2.734779,-0.22089 3.831074,0.70159 0.462233,0.38894 5.745464,5.95037 11.740515,12.35874 5.995051,6.40837 11.16404,11.88496 11.486644,12.17022 0.500047,0.44216 0.622594,0.46167 0.830932,0.13229 0.140399,-0.22197 0.246102,-5.70563 0.248431,-12.88792 l 0.0041,-12.50157 h 3.439584 3.439583 v 18.66162 c 0,20.25062 0.03065,19.80983 -1.458828,20.98145 -0.878401,0.69096 -2.930557,0.78013 -4.095043,0.17795 -0.420802,-0.2176 -5.970741,-5.90284 -12.3332,-12.63385 -6.362459,-6.73102 -11.786785,-12.27626 -12.054059,-12.32276 -0.465982,-0.0811 -0.485952,0.43816 -0.485952,12.63385 v 12.7184 h -3.395486 c -1.867519,0 -3.474862,-0.0794 -3.571874,-0.17639 z m -12.537742,-55.12685 c -0.71637,-0.28826 -0.84858,-0.812 -0.93375,-3.69886 l -0.0664,-2.24895 -9.24265,-0.0696 c -7.2183,-0.0544 -9.28911,0.004 -9.4548,0.26458 -0.11668,0.18382 -0.21398,1.41173 -0.2162,2.72869 -0.003,1.50449 -0.12206,2.51249 -0.32155,2.71198 -0.23852,0.23852 -3.6244,0.3175 -13.61104,0.3175 h -13.29354 l -0.41188,-0.58804 c -0.35906,-0.51263 -0.41188,-2.23649 -0.41188,-13.44318 0,-10.68123 0.0635,-12.94199 0.37534,-13.36873 0.35887,-0.49105 0.87845,-0.51939 11.84011,-0.64588 l 11.46476,-0.13229 0.13229,-2.5391 c 0.0826,-1.586 0.2686,-2.70331 0.49542,-2.97656 0.32892,-0.39626 1.61359,-0.43747 13.63927,-0.43747 9.97311,0 13.35514,0.079 13.59365,0.3175 0.20107,0.20108 0.3175,1.21289 0.3175,2.75923 0,1.86697 0.0979,2.53959 0.41577,2.8575 0.36077,0.36077 1.54375,0.41577 8.942916,0.41577 6.279443,0 8.610832,-0.0837 8.844642,-0.3175 0.203645,-0.20364 0.3175,-1.24512 0.3175,-2.90431 0,-2.42836 0.03835,-2.61195 0.626102,-2.99706 0.548317,-0.35927 2.25883,-0.40112 13.768104,-0.33683 11.339488,0.0633 13.176392,0.12785 13.392761,0.47029 0.395404,0.62579 0.338973,26.80155 -0.05863,27.19916 -0.236767,0.23677 -3.116204,0.3175 -11.324166,0.3175 -8.207962,0 -11.087398,0.0807 -11.324166,0.3175 -0.203496,0.2035 -0.3175,1.24315 -0.3175,2.89542 0,2.364 -0.04879,2.61208 -0.588039,2.98979 -0.513247,0.35949 -2.204247,0.40974 -13.295312,0.3951 -6.989002,-0.009 -12.971612,-0.12313 -13.294672,-0.25312 z m 26.49766,-0.67505 c 0.366512,-0.36651 0.415775,-1.93168 0.415775,-13.21026 0,-11.3164 -0.04837,-12.84287 -0.41869,-13.21319 -0.370615,-0.37061 -1.669431,-0.41076 -11.310937,-0.34963 l -10.892248,0.0691 -0.13229,10.21227 c -0.10335,7.97832 -0.20963,10.30539 -0.48582,10.63791 -0.24538,0.29544 -0.89284,0.44941 -2.11667,0.50335 l -1.76314,0.0777 -0.0764,2.47404 c -0.0493,1.59676 0.0325,2.60532 0.23083,2.84427 0.25561,0.30799 2.47794,0.37023 13.220551,0.37023 11.386573,0 12.962442,-0.0492 13.329059,-0.41578 z m -47.45641,-0.1227 c 0.49514,-0.26499 0.51177,-0.68959 0.51177,-13.06448 0,-10.47993 -0.0652,-12.84469 -0.3609,-13.0901 -0.26035,-0.21607 -3.96444,-0.28038 -13.29531,-0.23083 l -12.93441,0.0687 -0.0687,12.93442 c -0.0496,9.33086 0.0148,13.03495 0.23084,13.29531 0.24526,0.29552 2.5732,0.36089 12.85222,0.36089 8.14692,0 12.73233,-0.0961 13.06448,-0.27389 z m 24.00677,-6.39361 c 0.45737,-0.45737 0.45737,-25.63054 0,-26.08791 -0.50432,-0.50432 -25.69943,-0.45249 -26.11955,0.0537 -0.1954,0.23544 -0.27983,1.17906 -0.23084,2.57969 l 0.0773,2.20845 1.05834,0.0705 c 1.73592,0.11567 2.14265,0.27946 2.46818,0.99391 0.21892,0.48049 0.30994,3.5385 0.30994,10.41329 0,5.35317 0.0794,9.81241 0.17639,9.90942 0.097,0.097 5.07383,0.17639 11.05959,0.17639 8.11192,0 10.96403,-0.0808 11.20069,-0.3175 z m 46.46839,-0.0983 c 0.366466,-0.36647 0.415292,-1.91182 0.411723,-13.03073 -0.0021,-6.93822 -0.09925,-12.76492 -0.215612,-12.9482 -0.166409,-0.26214 -3.002899,-0.3186 -13.291261,-0.26459 l -13.0797,0.0687 -0.07535,2.54828 -0.07535,2.54828 1.760979,0.11213 c 1.333264,0.0849 1.849607,0.23333 2.125869,0.61114 0.294611,0.40291 0.364889,2.3901 0.364889,10.31741 0,7.28374 0.08196,9.90035 0.3175,10.13588 0.236289,0.23629 3.006169,0.3175 10.829017,0.3175 9.203148,0 10.56327,-0.0517 10.927292,-0.41577 z"
         id="path211" />
    </g>
  </g>
</svg>
