<?xml version="1.0" standalone="no"?>
<!DOCTYPE svg PUBLIC "-//W3C//DTD SVG 20010904//EN"
 "http://www.w3.org/TR/2001/REC-SVG-20010904/DTD/svg10.dtd">
<svg version="1.0" xmlns="http://www.w3.org/2000/svg"
 width="1011.000000pt" height="425.000000pt" viewBox="0 0 1011.000000 425.000000"
 preserveAspectRatio="xMidYMid meet">

<g transform="translate(0.000000,425.000000) scale(0.100000,-0.100000)"
fill="#000000" stroke="none">
<path d="M8700 3790 c-17 -17 -20 -33 -20 -125 l0 -105 -337 2 -338 3 -3 104
c-1 58 -8 111 -14 118 -8 10 -113 13 -523 13 -460 0 -514 -2 -526 -16 -8 -10
-15 -53 -17 -115 l-4 -99 -425 0 -424 0 -25 -25 -25 -25 3 -498 c2 -405 6
-502 17 -515 12 -15 61 -17 518 -17 328 0 511 4 524 10 17 10 19 22 19 115 l0
105 350 0 350 0 0 -99 c0 -106 7 -125 53 -136 12 -3 242 -4 510 -3 470 3 489
4 503 22 10 14 14 50 14 123 l0 103 424 0 c373 0 426 2 440 16 14 14 16 75 16
524 l0 509 -22 15 c-20 14 -86 16 -520 16 -485 0 -499 -1 -518 -20z m145 -765
l0 -500 -502 -3 -503 -2 0 100 0 100 63 0 c110 0 102 -32 105 419 l3 391 417
-2 417 -3 0 -500z"/>
<path d="M5990 1286 l0 -996 150 0 150 0 0 898 -1 897 -140 95 c-77 52 -144
97 -150 98 -5 2 -9 -377 -9 -992z m158 849 l102 -70 0 -867 0 -868 -110 0
-110 0 0 941 c0 517 3 939 8 937 4 -1 53 -34 110 -73z"/>
<path d="M3035 1936 c-16 -8 -42 -26 -56 -42 -19 -22 -737 -1198 -889 -1456
l-22 -38 170 0 170 0 333 560 c184 307 337 558 341 557 4 -1 59 -90 122 -197
l115 -195 -181 -5 -182 -5 -68 -130 c-37 -71 -68 -133 -68 -137 0 -5 153 -8
339 -8 l340 0 131 -220 131 -220 179 0 180 0 -23 38 c-13 20 -210 343 -437
717 -227 374 -425 699 -441 721 -45 67 -117 90 -184 60z"/>
<path d="M6665 1940 c-31 -12 -64 -53 -75 -91 -6 -21 -10 -309 -10 -736 l0
-703 140 0 140 0 0 486 c0 267 4 484 8 482 4 -1 203 -210 442 -463 239 -253
447 -470 463 -482 86 -65 208 -22 236 82 7 27 11 266 11 738 l0 697 -145 0
-145 0 -2 -492 -3 -492 -349 374 c-439 471 -554 590 -584 601 -29 11 -100 11
-127 -1z"/>
<path d="M8391 1932 c-43 -21 -70 -57 -81 -108 -5 -21 -10 -351 -10 -731 l0
-693 145 0 145 0 2 488 3 487 440 -466 c242 -257 456 -476 476 -488 55 -31
128 -29 170 6 61 52 59 25 59 803 l0 710 -140 0 -140 0 0 -492 -1 -493 -82 85
c-45 47 -201 213 -347 370 -479 516 -505 540 -577 540 -15 0 -43 -8 -62 -18z"/>
<path d="M1025 1925 c-235 -52 -421 -197 -511 -400 -50 -114 -67 -215 -61
-370 4 -122 8 -152 35 -235 78 -236 239 -401 470 -481 l97 -34 488 -3 487 -3
0 150 0 151 -452 0 c-346 0 -465 3 -503 14 -311 83 -433 475 -237 760 39 57
133 122 209 146 61 19 93 20 524 20 l459 0 0 150 0 150 -472 -1 c-352 0 -488
-4 -533 -14z"/>
<path d="M4140 1170 l0 -771 488 3 c472 4 489 5 562 27 203 61 352 184 449
371 58 111 82 204 88 345 17 377 -167 652 -512 766 -69 23 -78 24 -572 27
l-503 3 0 -771z m980 456 c146 -47 257 -164 296 -311 18 -65 18 -216 0 -281
-34 -130 -121 -233 -243 -292 l-78 -37 -327 -3 -328 -3 0 476 0 477 313 -4
c263 -4 321 -8 367 -22z"/>
</g>
</svg>
